<svg width="20" height="18" viewBox="0 0 20 18" fill="none" xmlns="http://www.w3.org/2000/svg">
<path d="M7.13536 0.581234C7.10046 0.399648 6.99403 0.23833 6.83859 0.131386C6.68314 0.0244433 6.49086 -0.0197408 6.30239 0.0081759C6.13398 0.0331609 5.98088 0.11714 5.87212 0.244193C5.76336 0.371246 5.7065 0.532543 5.71231 0.697507C3.98064 1.11138 2.88049 1.94329 2.2304 2.96759C1.57888 3.9919 1.426 5.1311 1.426 6.05159V6.489L0.40586 7.85797C0.238524 8.0824 0.119206 8.33698 0.0549243 8.60674C-0.0093569 8.87649 -0.0173028 9.15598 0.0315544 9.42876C0.0804115 9.70154 0.185085 9.9621 0.339417 10.1951C0.493748 10.4281 0.694621 10.6289 0.930219 10.7856L9.40282 16.4206C10.9504 17.4498 12.7836 18.0004 14.6607 18H16.8024C17.6502 17.9993 18.4631 17.6727 19.0626 17.0919C19.6621 16.5111 19.9992 15.7235 20 14.9022C20 13.1387 18.4712 11.9234 17.1167 11.3448C16.6581 11.1482 16.2709 10.8797 16.0166 10.517L13.019 5.52006C13.1974 5.48427 13.3541 5.38219 13.4556 5.23571C13.5571 5.08924 13.5953 4.91005 13.562 4.7366C13.5274 4.55485 13.4211 4.39331 13.2655 4.28631C13.11 4.17931 12.9175 4.13526 12.729 4.16354C10.0572 4.57327 7.57114 2.91223 7.13536 0.581234ZM11.4045 5.58235L14.7936 11.2326L14.8164 11.2673C15.2665 11.9247 15.9151 12.3428 16.5395 12.6099C17.2496 12.9145 17.8383 13.3449 18.1969 13.8419H14.6278C13.6153 13.8413 12.6269 13.543 11.7931 12.9864L9.51569 11.468L10.653 10.906C10.8255 10.8205 10.9782 10.702 11.1019 10.5576C11.2256 10.4132 11.3178 10.246 11.3727 10.066C11.4276 9.88606 11.4442 9.69715 11.4214 9.51079C11.3986 9.32443 11.337 9.1445 11.2402 8.98194L10.4272 7.61297C10.244 7.30615 9.94627 7.07912 9.59538 6.97868C9.24449 6.87824 8.8672 6.91205 8.54127 7.07313L5.31225 8.66496L3.94349 7.75139L5.59372 7.02053C5.77461 6.94032 5.93622 6.82439 6.06819 6.68017C6.20017 6.53596 6.2996 6.36663 6.36013 6.18303C6.42065 5.99943 6.44093 5.80561 6.41967 5.61398C6.39841 5.42235 6.33608 5.23714 6.23667 5.07019L4.72646 2.53296C5.16252 2.3045 5.62882 2.13497 6.11236 2.02911C7.01678 4.02928 9.08849 5.3941 11.4045 5.58235ZM8.17551 10.5752L6.65101 9.55777L9.1885 8.30507L10.0029 9.67266L8.17551 10.5752ZM3.44628 3.69291C3.49867 3.60986 3.55677 3.5282 3.62059 3.44791L4.99792 5.76229L2.85477 6.71324V6.05159C2.85477 5.25983 2.98907 4.4127 3.44628 3.69291ZM1.56459 8.66773L1.97322 8.11959L10.983 14.127C12.0553 14.8419 13.3262 15.2247 14.6278 15.2247H18.5398C18.4619 15.6159 18.2459 15.9686 17.9289 16.2224C17.6119 16.4762 17.2137 16.6153 16.8024 16.6158H14.6593C13.0714 16.6161 11.5207 16.1504 10.2115 15.28L1.74033 9.64359C1.66184 9.59132 1.59492 9.52438 1.54352 9.44669C1.49212 9.36901 1.45728 9.28215 1.44104 9.19122C1.4248 9.1003 1.42749 9.00715 1.44895 8.91725C1.47042 8.82734 1.51022 8.74251 1.56602 8.66773" fill="white"/>
</svg>
