<svg width="24" height="24" viewBox="0 0 24 24" fill="none" xmlns="http://www.w3.org/2000/svg">
<path d="M11.75 8.35725V3.57434M11.75 8.35725L15.3176 10.9497M11.75 8.35725L8.18244 10.9497M11.75 3.57434L7.58784 1.5658M11.75 3.57434L15.9122 1.5658C14.5913 1.02497 13.1773 0.747836 11.75 0.750013C10.2766 0.750013 8.87217 1.03899 7.58784 1.56461C6.08566 2.18129 4.73771 3.1212 3.63974 4.31758M15.3176 10.9497L13.9548 15.1428M15.3176 10.9497L19.8591 8.35606L22.6442 13.2793C22.7147 12.7798 22.75 12.2701 22.75 11.75C22.7538 8.99764 21.7222 6.34453 19.8603 4.31758M8.18244 10.9497L9.54525 15.1428M8.18244 10.9497L3.63974 8.35606M13.9548 15.1428L17.1013 18.922M13.9548 15.1428H9.54525M17.1013 18.922L14.3222 22.4479C15.7832 22.0951 17.1567 21.4473 18.3581 20.5442C19.5596 19.6411 20.5637 18.5019 21.3087 17.1965M17.1013 18.922L21.3087 17.1965M9.54525 15.1428L6.39865 18.922M6.39865 18.922L9.17779 22.4479M6.39865 18.922L2.19131 17.1953M15.9122 1.56461C17.4143 2.18129 18.7623 3.1212 19.8603 4.31758M19.8603 4.31758V8.35725M3.63974 4.31758C1.77776 6.34453 0.746231 8.99764 0.75001 11.75C0.75001 12.2701 0.78529 12.7798 0.855848 13.2793M3.63974 4.31758V8.35725M0.855848 13.2793C1.04773 14.6581 1.50099 15.9864 2.19131 17.1953M0.855848 13.2793L3.64093 8.35606M14.321 22.4479C13.4788 22.6489 12.6159 22.7503 11.75 22.75C10.8837 22.7504 10.0204 22.649 9.17779 22.4479M9.17779 22.4479C7.71677 22.0951 6.34333 21.4461 5.14187 20.543C3.94042 19.6399 2.93633 18.5007 2.19131 17.1953M21.3087 17.1965C21.999 15.9876 22.4523 14.6569 22.6442 13.2781" stroke="white" stroke-width="1.5" stroke-linecap="round" stroke-linejoin="round"/>
</svg>
