<svg width="20" height="15" viewBox="0 0 20 15" fill="none" xmlns="http://www.w3.org/2000/svg">
<path d="M20 14.9998H18.5714C18.0171 15.0051 17.4694 14.8729 16.9729 14.6139C16.4764 14.355 16.0452 13.9766 15.7143 13.5096C15.3799 13.9727 14.9479 14.3481 14.4522 14.6067C13.9565 14.8652 13.4106 14.9997 12.8571 14.9997C12.3037 14.9997 11.7577 14.8652 11.2621 14.6067C10.7664 14.3481 10.3344 13.9727 10 13.5096C9.66559 13.9727 9.23363 14.3481 8.73794 14.6067C8.24226 14.8652 7.69632 14.9997 7.14286 14.9997C6.5894 14.9997 6.04345 14.8652 5.54777 14.6067C5.05209 14.3481 4.62013 13.9727 4.28571 13.5096C3.95481 13.9766 3.52357 14.355 3.02709 14.6139C2.53061 14.8729 1.98291 15.0051 1.42857 14.9998H0V13.4999H1.42857C1.91558 13.4698 2.38303 13.2882 2.77139 12.9782C3.15975 12.6682 3.45144 12.2438 3.60929 11.7591C3.65428 11.6088 3.74457 11.4778 3.86656 11.386C3.98855 11.2941 4.13564 11.2464 4.28571 11.2499C4.43543 11.251 4.58112 11.3009 4.70258 11.3929C4.82404 11.4848 4.91525 11.6141 4.96357 11.7629C5.12191 12.2466 5.41363 12.67 5.80166 12.9793C6.18969 13.2886 6.65653 13.4698 7.14286 13.4999C7.62986 13.4698 8.09732 13.2882 8.48568 12.9782C8.87404 12.6682 9.16572 12.2438 9.32357 11.7591C9.37055 11.6101 9.46133 11.4804 9.58287 11.3889C9.70441 11.2974 9.85045 11.2488 10 11.2499C10.1497 11.251 10.2954 11.3009 10.4169 11.3929C10.5383 11.4848 10.6295 11.6141 10.6779 11.7629C10.8362 12.2466 11.1279 12.67 11.5159 12.9793C11.904 13.2886 12.3708 13.4698 12.8571 13.4999C13.3441 13.4698 13.8116 13.2882 14.2 12.9782C14.5883 12.6682 14.88 12.2438 15.0379 11.7591C15.0859 11.6103 15.1772 11.4811 15.2989 11.3897C15.4206 11.2982 15.5666 11.2493 15.7163 11.2497C15.8659 11.2501 16.0117 11.2999 16.133 11.392C16.2542 11.484 16.3449 11.6138 16.3921 11.7629C16.5505 12.2466 16.8422 12.67 17.2302 12.9793C17.6183 13.2886 18.0851 13.4698 18.5714 13.4999H20V14.9998ZM15 8.68941L8.78071 2.15923C8.58217 1.94953 8.34596 1.78328 8.08578 1.67012C7.8256 1.55695 7.54662 1.49913 7.265 1.49999H1.42857V2.99997H7.265C7.35891 2.99989 7.45192 3.01926 7.5387 3.05697C7.62547 3.09468 7.70432 3.14998 7.77071 3.21972L9.70429 5.24995L5.71429 9.43941L6.72429 10.4999L10.7143 6.31044L13.99 9.7499L15 8.68941ZM12.8571 2.99997C12.8571 2.40663 13.0247 1.82662 13.3387 1.33328C13.6526 0.839935 14.0988 0.455421 14.6209 0.22836C15.143 0.00129983 15.7175 -0.0581096 16.2717 0.0576449C16.8259 0.173399 17.335 0.459119 17.7346 0.878672C18.1342 1.29823 18.4063 1.83277 18.5165 2.41471C18.6268 2.99664 18.5702 3.59984 18.3539 4.14801C18.1377 4.69618 17.7715 5.16471 17.3016 5.49435C16.8318 5.824 16.2794 5.99994 15.7143 5.99994C14.9568 5.99915 14.2305 5.68282 13.6948 5.12039C13.1592 4.55796 12.8579 3.79537 12.8571 2.99997ZM14.2857 2.99997C14.2857 3.29664 14.3695 3.58665 14.5265 3.83332C14.6834 4.07999 14.9066 4.27225 15.1676 4.38578C15.4286 4.49931 15.7159 4.52901 15.993 4.47113C16.2701 4.41326 16.5246 4.2704 16.7244 4.06062C16.9242 3.85084 17.0603 3.58357 17.1154 3.2926C17.1705 3.00163 17.1422 2.70004 17.0341 2.42595C16.926 2.15187 16.7429 1.9176 16.508 1.75278C16.273 1.58796 15.9968 1.49999 15.7143 1.49999C15.3354 1.49999 14.972 1.65802 14.7041 1.93932C14.4362 2.22062 14.2857 2.60215 14.2857 2.99997Z" fill="white"/>
</svg>
