<svg width="17" height="17" viewBox="0 0 17 17" fill="none" xmlns="http://www.w3.org/2000/svg">
<path d="M12.9788 9.94125C13.0792 9.83085 13.1317 9.68507 13.1246 9.53598C13.1176 9.38689 13.0516 9.2467 12.9412 9.14625C12.8309 9.0458 12.6851 8.99332 12.536 9.00035C12.3869 9.00738 12.2467 9.07335 12.1462 9.18375L12.9788 9.94125ZM14.9948 7.11975L15.3953 6.72525L15.3923 6.7215L14.9948 7.11975ZM15.1522 8.082C15.2041 8.13469 15.2657 8.17667 15.3338 8.20552C15.4018 8.23438 15.4748 8.24955 15.5487 8.25018C15.6226 8.25081 15.6959 8.23687 15.7644 8.20918C15.8329 8.18148 15.8953 8.14056 15.948 8.08875C16.0007 8.03694 16.0427 7.97527 16.0715 7.90724C16.1004 7.83921 16.1156 7.76617 16.1162 7.69227C16.1168 7.61838 16.1029 7.54509 16.0752 7.47658C16.0475 7.40807 16.0066 7.34569 15.9548 7.293L15.1522 8.082ZM3.36225 13.3447C3.21307 13.3447 3.06999 13.404 2.9645 13.5095C2.85901 13.615 2.79975 13.7581 2.79975 13.9072C2.79975 14.0564 2.85901 14.1995 2.9645 14.305C3.06999 14.4105 3.21307 14.4697 3.36225 14.4697V13.3447ZM1.6875 10.875C1.53832 10.875 1.39524 10.9343 1.28975 11.0398C1.18426 11.1452 1.125 11.2883 1.125 11.4375C1.125 11.5867 1.18426 11.7298 1.28975 11.8352C1.39524 11.9407 1.53832 12 1.6875 12V10.875ZM5.2065 1.5795C5.25926 1.44275 5.25655 1.29081 5.19896 1.15602C5.14137 1.02123 5.03344 0.914251 4.89815 0.857848C4.76287 0.801446 4.6109 0.800079 4.47462 0.854038C4.33834 0.907998 4.22851 1.01302 4.1685 1.14675L5.2065 1.5795ZM4.1685 10.5292C4.2274 10.6648 4.33728 10.7717 4.47438 10.8269C4.61148 10.8821 4.7648 10.8811 4.90117 10.8241C5.03755 10.7672 5.14603 10.6588 5.20317 10.5225C5.2603 10.3862 5.2615 10.2329 5.2065 10.0958L4.1685 10.5292ZM7.3125 3.375C7.16332 3.375 7.02024 3.43426 6.91475 3.53975C6.80926 3.64524 6.75 3.78832 6.75 3.9375C6.75 4.08668 6.80926 4.22976 6.91475 4.33525C7.02024 4.44074 7.16332 4.5 7.3125 4.5V3.375ZM13.9695 11.7495C14.0101 11.8118 14.0626 11.8655 14.1241 11.9074C14.1856 11.9493 14.2547 11.9786 14.3276 11.9936C14.4004 12.0086 14.4756 12.009 14.5486 11.9948C14.6216 11.9805 14.6911 11.9519 14.7529 11.9107C14.8148 11.8694 14.8679 11.8163 14.9092 11.7544C14.9504 11.6924 14.9789 11.623 14.9931 11.5499C15.0073 11.4769 15.0069 11.4018 14.9918 11.3289C14.9768 11.2561 14.9474 11.1869 14.9055 11.1255L13.9695 11.7495ZM8.0625 15C6.22256 15 4.45798 14.2691 3.15695 12.9681C1.85591 11.667 1.125 9.90244 1.125 8.0625H0C0 12.5153 3.60975 16.125 8.0625 16.125V15ZM15 8.0625C15 9.90244 14.2691 11.667 12.9681 12.9681C11.667 14.2691 9.90244 15 8.0625 15V16.125C12.5153 16.125 16.125 12.5153 16.125 8.0625H15ZM8.0625 1.125C9.90244 1.125 11.667 1.85591 12.9681 3.15695C14.2691 4.45798 15 6.22256 15 8.0625H16.125C16.125 3.60975 12.5153 0 8.0625 0V1.125ZM8.0625 0C3.60975 0 0 3.60975 0 8.0625H1.125C1.125 6.22256 1.85591 4.45798 3.15695 3.15695C4.45798 1.85591 6.22256 1.125 8.0625 1.125V0ZM8.0625 8.625H8.1315V7.5H8.0625V8.625ZM7.6185 7.7175L7.296 8.13225L8.184 8.82225L8.5065 8.4075L7.6185 7.7175ZM7.5435 0.3465L7.029 1.58025L8.06775 2.013L8.5815 0.7785L7.5435 0.3465ZM12.1462 9.1845L11.928 9.4245L12.7605 10.1812L12.9788 9.94125L12.1462 9.1845ZM14.5935 7.51425L15.1522 8.082L15.9548 7.293L15.3953 6.72525L14.5935 7.51425ZM11.928 9.4245C9.7755 11.7922 6.53325 13.3447 3.36225 13.3447V14.4697C6.87825 14.4697 10.4152 12.762 12.7605 10.1812L11.928 9.4245ZM7.029 1.58025C6.57355 2.67267 6.3864 3.85829 6.48323 5.03789C6.58005 6.21748 6.95802 7.35672 7.5855 8.36025L8.5395 7.764C8.00714 6.91282 7.68644 5.9465 7.60423 4.94593C7.52203 3.94536 7.68071 2.93965 8.067 2.013L7.029 1.58025ZM7.296 8.13225C6.63183 8.98643 5.78128 9.67757 4.80927 10.1529C3.83727 10.6283 2.76951 10.8752 1.6875 10.875V12C4.227 12 6.62475 10.8278 8.184 8.823L7.296 8.13225ZM4.1685 1.14675C3.54576 2.63238 3.22503 4.22713 3.22503 5.838C3.22503 7.44887 3.54576 9.04362 4.1685 10.5292L5.2065 10.0958C4.641 8.74735 4.34975 7.29981 4.34975 5.83762C4.34975 4.37544 4.641 2.9279 5.2065 1.5795L4.1685 1.14675ZM7.3125 4.5C10.0448 4.5 12.6645 5.58525 14.5965 7.51725L15.3923 6.72225C13.2492 4.57951 10.343 3.37552 7.3125 3.375V4.5ZM8.1315 8.625C9.28655 8.62533 10.4237 8.91066 11.442 9.45569C12.4604 10.0007 13.3285 10.7886 13.9695 11.7495L14.9055 11.1255C14.1618 10.0105 13.1545 9.09626 11.9728 8.46383C10.7912 7.8314 9.47175 7.50034 8.1315 7.5V8.625Z" fill="white"/>
</svg>
